<?xml version="1.0" encoding="UTF-8"?>
<!DOCTYPE svg PUBLIC "-//W3C//DTD SVG 1.1//EN" "http://www.w3.org/Graphics/SVG/1.1/DTD/svg11.dtd">
<svg xmlns="http://www.w3.org/2000/svg" version="1.1" width="128px" height="128px" style="shape-rendering:geometricPrecision; text-rendering:geometricPrecision; image-rendering:optimizeQuality; fill-rule:evenodd; clip-rule:evenodd" xmlns:xlink="http://www.w3.org/1999/xlink">
<g><path style="opacity:0.851" fill="#436aa7" d="M 49.5,-0.5 C 50.5,-0.5 51.5,-0.5 52.5,-0.5C 53.5,0.833333 54.5,0.833333 55.5,-0.5C 60.8333,-0.5 66.1667,-0.5 71.5,-0.5C 72.5,0.833333 73.5,0.833333 74.5,-0.5C 75.5,-0.5 76.5,-0.5 77.5,-0.5C 80.263,1.0798 82.9297,2.91313 85.5,5C 85.1667,5.33333 84.8333,5.66667 84.5,6C 90.7006,11.1998 94.8673,17.6998 97,25.5C 97.6667,98.8333 98.3333,98.8333 99,25.5C 99.4999,43.4969 99.6666,61.4969 99.5,79.5C 103.024,79.9289 106.024,81.4289 108.5,84C 108.167,84.3333 107.833,84.6667 107.5,85C 109.43,87.2583 110.93,89.7583 112,92.5C 112.5,103.828 112.667,115.162 112.5,126.5C 111.833,126.5 111.5,126.833 111.5,127.5C 79.5,127.5 47.5,127.5 15.5,127.5C 15.5,126.833 15.1667,126.5 14.5,126.5C 14.3335,115.162 14.5001,103.828 15,92.5C 16.0704,89.7583 17.5704,87.2583 19.5,85C 19.1667,84.6667 18.8333,84.3333 18.5,84C 20.9756,81.4289 23.9756,79.9289 27.5,79.5C 27.3334,61.4969 27.5001,43.4969 28,25.5C 28.6667,98.8333 29.3333,98.8333 30,25.5C 30.9199,21.7367 32.4199,18.2367 34.5,15C 33.5494,14.2825 33.3828,13.4491 34,12.5C 37.15,11.4287 39.9833,9.26203 42.5,6C 41.1667,5.33333 41.1667,4.66667 42.5,4C 44.8981,2.47576 47.2314,0.97576 49.5,-0.5 Z"/></g>
<g><path style="opacity:1" fill="#9bc8fa" d="M 91.5,27.5 C 91.5,45.1667 91.5,62.8333 91.5,80.5C 86.8333,80.5 82.1667,80.5 77.5,80.5C 74.4453,78.1842 73.7786,75.1842 75.5,71.5C 80.2971,68.2041 83.7971,63.8707 86,58.5C 86.6667,49.1667 86.6667,39.8333 86,30.5C 83.0117,25.5182 79.345,21.1849 75,17.5C 64.1067,23.7992 52.44,28.1325 40,30.5C 39.3333,38.8333 39.3333,47.1667 40,55.5C 41.6425,62.4675 45.4758,67.8009 51.5,71.5C 53.2214,75.1842 52.5547,78.1842 49.5,80.5C 44.8333,80.5 40.1667,80.5 35.5,80.5C 35.5,62.8333 35.5,45.1667 35.5,27.5C 40.3507,11.069 51.3507,3.56903 68.5,5C 80.6572,7.99121 88.3238,15.4912 91.5,27.5 Z"/></g>
<g><path style="opacity:1" fill="#f8f9fc" d="M 73.5,23.5 C 76.7635,25.9688 79.5968,28.9688 82,32.5C 83.1356,41.673 82.469,50.673 80,59.5C 74.8552,68.0064 67.3552,71.173 57.5,69C 50.9028,66.7366 46.7361,62.2366 45,55.5C 44.5003,48.1742 44.3337,40.8409 44.5,33.5C 50.9792,32.7316 57.3126,31.2316 63.5,29C 67.3464,27.9141 70.6797,26.0807 73.5,23.5 Z"/></g>
<g><path style="opacity:1" fill="#84afe4" d="M 35.5,27.5 C 35.5,45.1667 35.5,62.8333 35.5,80.5C 40.1667,80.5 44.8333,80.5 49.5,80.5C 44.6946,81.4872 39.6946,81.8205 34.5,81.5C 34.1699,63.3256 34.5032,45.3256 35.5,27.5 Z"/></g>
<g><path style="opacity:1" fill="#84afe4" d="M 91.5,27.5 C 92.4968,45.3256 92.8301,63.3256 92.5,81.5C 87.3054,81.8205 82.3054,81.4872 77.5,80.5C 82.1667,80.5 86.8333,80.5 91.5,80.5C 91.5,62.8333 91.5,45.1667 91.5,27.5 Z"/></g>
<g><path style="opacity:1" fill="#5274ad" d="M 70.5,39.5 C 71.8221,39.33 72.9887,39.6634 74,40.5C 74.6667,42.5 74.6667,44.5 74,46.5C 72.6667,47.8333 71.3333,47.8333 70,46.5C 69.2967,44.0709 69.4634,41.7375 70.5,39.5 Z"/></g>
<g><path style="opacity:1" fill="#4369a7" d="M 53.5,39.5 C 55.8896,39.6848 56.8896,41.0182 56.5,43.5C 55.1667,48.8333 53.8333,48.8333 52.5,43.5C 52.6233,42.0755 52.9566,40.7421 53.5,39.5 Z"/></g>
<g><path style="opacity:1" fill="#476ca8" d="M 57.5,54.5 C 61.4787,55.6251 65.4787,55.6251 69.5,54.5C 69.1079,58.3912 66.9413,60.3912 63,60.5C 58.914,60.5803 57.0807,58.5803 57.5,54.5 Z"/></g>
<g><path style="opacity:1" fill="#f8f9fb" d="M 57.5,74.5 C 61.5,74.5 65.5,74.5 69.5,74.5C 69.6873,81.187 73.0207,85.3537 79.5,87C 78.624,88.586 77.624,90.086 76.5,91.5C 67.8333,92.8333 59.1667,92.8333 50.5,91.5C 49.376,90.086 48.376,88.586 47.5,87C 53.9793,85.3537 57.3127,81.187 57.5,74.5 Z"/></g>
<g><path style="opacity:1" fill="#fbfcfd" d="M 60.5,116.5 C 60.5,118.167 60.5,119.833 60.5,121.5C 47.1667,121.5 33.8333,121.5 20.5,121.5C 20.5,112.5 20.5,103.5 20.5,94.5C 22.9879,87.0916 27.9879,84.7582 35.5,87.5C 33.2962,89.8668 31.2962,92.3668 29.5,95C 31.8409,96.8355 34.1743,98.6688 36.5,100.5C 34.2092,102.288 32.0425,104.288 30,106.5C 29.3333,107.167 29.3333,107.833 30,108.5C 39.9319,112.025 50.0985,114.691 60.5,116.5 Z"/></g>
<g><path style="opacity:1" fill="#fafbfd" d="M 106.5,94.5 C 106.5,103.5 106.5,112.5 106.5,121.5C 93.1667,121.5 79.8333,121.5 66.5,121.5C 66.5,119.833 66.5,118.167 66.5,116.5C 76.7363,114.066 86.9029,111.399 97,108.5C 97.7494,107.365 97.5827,106.365 96.5,105.5C 94.4602,103.823 92.4602,102.156 90.5,100.5C 92.8257,98.6688 95.1591,96.8355 97.5,95C 95.7038,92.3668 93.7038,89.8668 91.5,87.5C 98.9012,85.0645 103.901,87.3979 106.5,94.5 Z"/></g>
<g><path style="opacity:0.009" fill="#4269a7" d="M 113.5,126.5 C 113.333,115.162 113.5,103.828 114,92.5C 114.826,104.008 114.659,115.341 113.5,126.5 Z"/></g>
<g><path style="opacity:1" fill="#7591bf" d="M 71.5,98.5 C 66.1667,97.1667 60.8333,97.1667 55.5,98.5C 54.9569,98.44 54.6236,98.1067 54.5,97.5C 60.5,96.1667 66.5,96.1667 72.5,97.5C 72.3764,98.1067 72.0431,98.44 71.5,98.5 Z"/></g>
<g><path style="opacity:1" fill="#f8f9fc" d="M 71.5,98.5 C 69.0753,102.352 66.4086,106.019 63.5,109.5C 60.5914,106.019 57.9247,102.352 55.5,98.5C 60.8333,97.1667 66.1667,97.1667 71.5,98.5 Z"/></g>
<g><path style="opacity:1" fill="#99c6f8" d="M 40.5,88.5 C 42.0174,88.5106 43.1841,89.1772 44,90.5C 48.5,97 53,103.5 57.5,110C 51.0772,109.309 44.7438,107.976 38.5,106C 46.805,100.861 46.1383,96.8608 36.5,94C 38.4388,92.5679 39.7721,90.7346 40.5,88.5 Z"/></g>
<g><path style="opacity:1" fill="#9ac7f8" d="M 84.5,88.5 C 86.797,89.8347 88.797,91.6681 90.5,94C 80.8617,96.8608 80.195,100.861 88.5,106C 82.1935,107.881 75.8601,109.214 69.5,110C 74.72,102.953 79.72,95.7868 84.5,88.5 Z"/></g>
<g><path style="opacity:1" fill="#c9d4e5" d="M 20.5,94.5 C 20.5,103.5 20.5,112.5 20.5,121.5C 33.8333,121.5 47.1667,121.5 60.5,121.5C 60.5,119.833 60.5,118.167 60.5,116.5C 61.4614,118.265 61.7947,120.265 61.5,122.5C 47.5,122.5 33.5,122.5 19.5,122.5C 19.1731,112.985 19.5064,103.652 20.5,94.5 Z"/></g>
<g><path style="opacity:1" fill="#c9d4e5" d="M 106.5,94.5 C 107.494,103.652 107.827,112.985 107.5,122.5C 93.5,122.5 79.5,122.5 65.5,122.5C 65.2053,120.265 65.5386,118.265 66.5,116.5C 66.5,118.167 66.5,119.833 66.5,121.5C 79.8333,121.5 93.1667,121.5 106.5,121.5C 106.5,112.5 106.5,103.5 106.5,94.5 Z"/></g>
<g><path style="opacity:0.004" fill="#3e69a9" d="M 14.5,126.5 C 14.5,126.833 14.5,127.167 14.5,127.5C 13.8299,127.019 13.8299,126.685 14.5,126.5 Z"/></g>
<g><path style="opacity:0.004" fill="#426aa6" d="M 112.5,126.5 C 112.833,126.5 113.167,126.5 113.5,126.5C 113.5,126.833 113.5,127.167 113.5,127.5C 113.167,127.167 112.833,126.833 112.5,126.5 Z"/></g>
</svg>
