<?xml version="1.0" encoding="UTF-8"?>
<svg version="1.1" xmlns="http://www.w3.org/2000/svg" width="128" height="128">
<path d="M0 0 C1.87558594 -0.04930664 1.87558594 -0.04930664 3.7890625 -0.09960938 C10.40394109 -0.13806797 15.3025431 0.11436972 20.80566406 3.96850586 C22.45934594 5.65041997 23.27236309 7.30361423 24.25 9.4375 C25.1794393 10.50502743 26.13956715 11.54643193 27.125 12.5625 C30.78059227 16.67504131 32.48737022 21.28439998 34.25 26.4375 C34.91 26.4375 35.57 26.4375 36.25 26.4375 C36.25 44.2575 36.25 62.0775 36.25 80.4375 C37.9 80.7675 39.55 81.0975 41.25 81.4375 C45.29766003 84.50390911 47.79244648 88.62407593 49.25 93.4375 C49.69639765 98.47596809 49.70129161 103.45837081 49.60668945 108.51245117 C49.56215807 110.89328082 49.54517631 113.27310002 49.53320312 115.65429688 C49.51979587 117.16407723 49.50487758 118.67384509 49.48828125 120.18359375 C49.48089432 120.89704453 49.47350739 121.6104953 49.46589661 122.3455658 C49.36840798 127.31909202 49.36840798 127.31909202 48.25 128.4375 C45.2723863 128.5381127 42.31792833 128.57364893 39.33984375 128.56689453 C37.93751999 128.56952301 37.93751999 128.56952301 36.50686646 128.57220459 C33.40039238 128.57662474 30.29397471 128.57368454 27.1875 128.5703125 C25.03898101 128.57098549 22.89046209 128.57195548 20.74194336 128.57321167 C16.23257728 128.57468886 11.72323097 128.57253339 7.21386719 128.56787109 C1.41951423 128.5621738 -4.37479242 128.56545269 -10.16914368 128.57144356 C-14.60762891 128.57504859 -19.04610307 128.57391085 -23.48458862 128.57131577 C-25.62173467 128.57064634 -27.75888171 128.57147547 -29.89602661 128.57379532 C-32.87732626 128.5763209 -35.8585498 128.57248259 -38.83984375 128.56689453 C-40.17860062 128.56993088 -40.17860062 128.56993088 -41.54440308 128.57302856 C-47.63573768 128.55176232 -47.63573768 128.55176232 -48.75 127.4375 C-48.88825999 125.01003596 -48.96312671 122.61308997 -48.98828125 120.18359375 C-48.996353 119.44931656 -49.00442474 118.71503937 -49.01274109 117.95851135 C-49.02660405 116.39741387 -49.03731626 114.83628579 -49.04516602 113.27514648 C-49.06225635 110.90873634 -49.10610325 108.54376868 -49.15039062 106.17773438 C-49.245546 96.92100191 -48.77360502 90.49945471 -42.8125 83 C-40.75 81.4375 -40.75 81.4375 -35.75 80.4375 C-35.75 62.6175 -35.75 44.7975 -35.75 26.4375 C-35.09 26.4375 -34.43 26.4375 -33.75 26.4375 C-33.10366725 24.66684889 -32.4579517 22.89597247 -31.8125 21.125 C-31.45285156 20.13886719 -31.09320313 19.15273438 -30.72265625 18.13671875 C-30.04114035 16.2454437 -29.3857189 14.34465671 -28.75 12.4375 C-27.41666667 11.77083333 -26.08333333 11.10416667 -24.75 10.4375 C-23.70884159 9.13605198 -22.71113866 7.79911311 -21.75 6.4375 C-15.30673431 -0.62930753 -9.15415745 0.04194879 0 0 Z " fill="#446BA8" transform="translate(63.75,-0.4375)"/>
<path d="M0 0 C6.32236065 4.44992477 9.58889308 10.77886335 12 18 C12.61295663 22.31821989 12.5882187 26.53235142 12.48828125 30.88671875 C12.48120651 32.06974075 12.47413177 33.25276276 12.46684265 34.47163391 C12.43909081 38.21092825 12.3763849 41.94866636 12.3125 45.6875 C12.28739247 48.23891051 12.26458364 50.79034473 12.24414062 53.34179688 C12.18932716 59.56171938 12.10589455 65.78074847 12 72 C9.56183415 72.0809723 7.12635616 72.14046972 4.6875 72.1875 C3.99720703 72.21263672 3.30691406 72.23777344 2.59570312 72.26367188 C-2.50025941 72.3375264 -2.50025941 72.3375264 -4.9375 70.69140625 C-6.89997922 67.56731249 -6.65701842 65.58373682 -6 62 C-4.15337531 60.02941207 -2.22249435 58.46306053 -0.04296875 56.87109375 C3.2885317 53.81987249 4.78241473 50.37782025 5.48339844 45.93896484 C6.97786511 28.59182387 6.97786511 28.59182387 0.5 13.25 C-1.86318319 10.72193554 -1.86318319 10.72193554 -4 9 C-7.20746364 9.65906787 -9.7474147 10.82841507 -12.625 12.375 C-19.58816673 15.91766377 -26.76929785 17.70597374 -34.3203125 19.5859375 C-35.38781738 19.85196777 -36.45532227 20.11799805 -37.55517578 20.39208984 C-38.76536377 20.69300537 -38.76536377 20.69300537 -40 21 C-40.11735877 24.97891352 -40.18763654 28.9573746 -40.25 32.9375 C-40.28351562 34.05447266 -40.31703125 35.17144531 -40.3515625 36.32226562 C-40.45318994 44.98600462 -39.21190151 51.31806412 -33.4375 57.9375 C-30.98405274 60.09296911 -30.98405274 60.09296911 -28 62 C-27.35227863 67.93744585 -27.35227863 67.93744585 -29.04296875 70.7109375 C-32.07174459 72.70593955 -35.19351244 72.31473204 -38.6875 72.1875 C-39.38939453 72.17396484 -40.09128906 72.16042969 -40.81445312 72.14648438 C-42.54329829 72.11120182 -44.27174765 72.05739583 -46 72 C-46.15315951 64.52956663 -46.25763633 57.05954367 -46.32958984 49.58789062 C-46.3596109 47.05062734 -46.4004411 44.51346649 -46.45263672 41.9765625 C-46.52609598 38.3122417 -46.5596055 34.64930233 -46.5859375 30.984375 C-46.61690521 29.86512634 -46.64787292 28.74587769 -46.67977905 27.5927124 C-46.68361129 18.45820201 -44.14862208 10.69955643 -38.02255249 3.75994873 C-26.67547724 -7.12272127 -13.43736957 -7.55491594 0 0 Z " fill="#99C6F8" transform="translate(81,10)"/>
<path d="M0 0 C3.45550478 3.03313381 5.69909849 6.36684816 6.53564453 10.90722656 C6.69770403 14.16568924 6.67156342 17.36457784 6.5625 20.625 C6.56056641 21.73101562 6.55863281 22.83703125 6.55664062 23.9765625 C6.44753345 30.70079753 5.99148909 35.68923365 1.31640625 40.86328125 C0.73761719 41.34152344 0.15882812 41.81976563 -0.4375 42.3125 C-1.30181641 43.04919922 -1.30181641 43.04919922 -2.18359375 43.80078125 C-6.7455923 46.81268137 -12.7471847 46.81403278 -18 46 C-23.24973955 43.60057916 -27.70774441 40.44410703 -30 35 C-30.89913297 32.0094656 -31.11764095 29.35198836 -31.09765625 26.234375 C-31.09443359 25.34492187 -31.09121094 24.45546875 -31.08789062 23.5390625 C-31.07532227 22.15847656 -31.07532227 22.15847656 -31.0625 20.75 C-31.05798828 19.81414063 -31.05347656 18.87828125 -31.04882812 17.9140625 C-31.03706918 15.60930959 -31.02063426 13.30468773 -31 11 C-30.29915283 10.7733667 -29.59830566 10.5467334 -28.8762207 10.31323242 C-25.68620325 9.27769759 -22.49936215 8.23270292 -19.3125 7.1875 C-17.65831055 6.65286133 -17.65831055 6.65286133 -15.97070312 6.10742188 C-14.90400391 5.75615234 -13.83730469 5.40488281 -12.73828125 5.04296875 C-11.75899658 4.72352295 -10.77971191 4.40407715 -9.77075195 4.07495117 C-6.46618662 2.79289979 -3.53354002 0 0 0 Z " fill="#FAFBFC" transform="translate(76,24)"/>
<path d="M0 0 C8.83700441 -0.44933921 8.83700441 -0.44933921 13 3 C15.91201997 6.95839674 16.35969309 9.74240425 16.29296875 14.61328125 C16.28172974 16.29997925 16.28172974 16.29997925 16.27026367 18.02075195 C16.24295166 19.43702881 16.21563965 20.85330566 16.1875 22.3125 C16.125625 26.829375 16.06375 31.34625 16 36 C2.14 36 -11.72 36 -26 36 C-26 34.02 -26 32.04 -26 30 C-24.40285156 29.63648438 -24.40285156 29.63648438 -22.7734375 29.265625 C-15.49010428 27.59231291 -8.22046813 25.86543943 -1 23.9375 C0.134375 23.63714844 1.26875 23.33679688 2.4375 23.02734375 C3.283125 22.68832031 4.12875 22.34929687 5 22 C5.33 21.01 5.66 20.02 6 19 C5.1028125 18.566875 5.1028125 18.566875 4.1875 18.125 C2 17 2 17 -1 15 C-0.67 14.01 -0.34 13.02 0 12 C3.0625 10.8125 3.0625 10.8125 6 10 C5.3503125 8.9171875 5.3503125 8.9171875 4.6875 7.8125 C3.125 5.20833333 1.5625 2.60416667 0 0 Z " fill="#F6F7FA" transform="translate(92,87)"/>
<path d="M0 0 C1.21236328 0.02707031 1.21236328 0.02707031 2.44921875 0.0546875 C3.37154297 0.08949219 3.37154297 0.08949219 4.3125 0.125 C2.9387658 3.02114093 1.56856768 4.86893232 -0.6875 7.125 C-1.0175 8.115 -1.3475 9.105 -1.6875 10.125 C0.2925 10.785 2.2725 11.445 4.3125 12.125 C4.3125 13.445 4.3125 14.765 4.3125 16.125 C1.09821429 19.125 1.09821429 19.125 -1.6875 19.125 C-1.3575 20.115 -1.0275 21.105 -0.6875 22.125 C2.07940957 23.11577111 4.72346769 23.90908257 7.5625 24.625 C8.36993652 24.83858154 9.17737305 25.05216309 10.00927734 25.2722168 C16.74266404 27.03451719 23.51105341 28.64694712 30.3125 30.125 C30.3125 32.105 30.3125 34.085 30.3125 36.125 C16.4525 36.125 2.5925 36.125 -11.6875 36.125 C-11.77 31.62875 -11.8525 27.1325 -11.9375 22.5 C-11.97391602 21.09282715 -12.01033203 19.6856543 -12.04785156 18.23583984 C-12.15056512 6.70044446 -12.15056512 6.70044446 -7.6875 2.125 C-4.48369983 -0.01086678 -3.66810033 -0.10632175 0 0 Z " fill="#F6F7FA" transform="translate(31.6875,86.875)"/>
<path d="M0 0 C3.96 0 7.92 0 12 0 C12.4125 1.258125 12.825 2.51625 13.25 3.8125 C14.56104663 7.31893131 15.65358821 9.11764337 19 11 C19.99 11.66 20.98 12.32 22 13 C20.8737793 15.46948242 20.8737793 15.46948242 19 18 C16.27270508 18.56762695 16.27270508 18.56762695 13.01953125 18.48828125 C11.85615234 18.47216797 10.69277344 18.45605469 9.49414062 18.43945312 C8.27919922 18.39755859 7.06425781 18.35566406 5.8125 18.3125 C4.58595703 18.28994141 3.35941406 18.26738281 2.09570312 18.24414062 C-0.93741559 18.18513053 -3.96810222 18.10284592 -7 18 C-7.99 16.02 -8.98 14.04 -10 12 C-9.071875 11.608125 -8.14375 11.21625 -7.1875 10.8125 C-3.71055156 8.83541167 -2.65575955 7.57295483 -1 4 C-0.67 2.68 -0.34 1.36 0 0 Z " fill="#F8F9FB" transform="translate(58,75)"/>
<path d="M0 0 C3.73639216 1.24546405 4.18756513 2.63404953 6 6 C3.69 7.32 1.38 8.64 -1 10 C-0.45367619 13.82426669 1.26083597 15.39231585 4 18 C1.586238 18.69951063 -0.83010234 19.38483919 -3.25 20.0625 C-3.93191406 20.26166016 -4.61382812 20.46082031 -5.31640625 20.66601562 C-8.9696237 21.67685735 -11.38905372 22.11883567 -15 21 C-12.68912297 17.68636502 -10.37602779 14.37428468 -8.0625 11.0625 C-7.40314453 10.11697266 -6.74378906 9.17144531 -6.06445312 8.19726562 C-5.43603516 7.29814453 -4.80761719 6.39902344 -4.16015625 5.47265625 C-3.57886963 4.64000244 -2.99758301 3.80734863 -2.39868164 2.94946289 C-1 1 -1 1 0 0 Z " fill="#98C5F7" transform="translate(85,89)"/>
<path d="M0 0 C3.57203913 1.44647212 5.11301719 3.16952579 7.234375 6.3515625 C8.09482422 7.62773438 8.09482422 7.62773438 8.97265625 8.9296875 C9.55917969 9.81914063 10.14570312 10.70859375 10.75 11.625 C11.35199219 12.5221875 11.95398438 13.419375 12.57421875 14.34375 C14.05769912 16.5571969 15.53250926 18.77593344 17 21 C12.7205637 22.32596434 9.436622 21.28524688 5.25 20.0625 C4.55261719 19.86720703 3.85523438 19.67191406 3.13671875 19.47070312 C1.42201027 18.9891754 -0.28934877 18.49574843 -2 18 C-1.17886719 17.21882813 -0.35773437 16.43765625 0.48828125 15.6328125 C3.19211716 13.34685661 3.19211716 13.34685661 3.1875 10.875 C1.40989084 8.0682487 -1.00877906 7.27285998 -4 6 C-2.68 4.02 -1.36 2.04 0 0 Z " fill="#99C6F7" transform="translate(41,89)"/>
<path d="M0 0 C5.28 0 10.56 0 16 0 C14.05372161 4.86569598 12.07915761 7.86744637 9 12 C5.37648747 10.79216249 4.84784764 9.70346858 2.8125 6.5625 C2.28269531 5.75941406 1.75289062 4.95632812 1.20703125 4.12890625 C0 2 0 2 0 0 Z " fill="#F8F9FC" transform="translate(56,98)"/>
<path d="M0 0 C3.96 0 7.92 0 12 0 C11 4 11 4 9 6 C5.5 6.25 5.5 6.25 2 6 C1.34 5.34 0.68 4.68 0 4 C0 2.68 0 1.36 0 0 Z " fill="#486DA9" transform="translate(58,55)"/>
<path d="M0 0 C2.0625 0.4375 2.0625 0.4375 4 1 C4 2.98 4 4.96 4 7 C2.0625 7.5625 2.0625 7.5625 0 8 C-1 7 -1 7 -1.125 4 C-1 1 -1 1 0 0 Z " fill="#5679B0" transform="translate(71,40)"/>
<path d="M0 0 C0.33 0 0.66 0 1 0 C1 11.22 1 22.44 1 34 C0.67 34 0.34 34 0 34 C0 22.78 0 11.56 0 0 Z " fill="#4269A7" transform="translate(114,93)"/>
<path d="M0 0 C0.33 0 0.66 0 1 0 C1 11.22 1 22.44 1 34 C0.67 34 0.34 34 0 34 C0 22.78 0 11.56 0 0 Z " fill="#4269A7" transform="translate(13,93)"/>
<path d="M0 0 C0.99 0.33 1.98 0.66 3 1 C3 2.98 3 4.96 3 7 C1.68 7 0.36 7 -1 7 C-1.04254356 5.00045254 -1.04080783 2.99958364 -1 1 C-0.67 0.67 -0.34 0.34 0 0 Z " fill="#456BA8" transform="translate(54,40)"/>
<path d="" fill="#4169A7" transform="translate(0,0)"/>
<path d="" fill="#4268A7" transform="translate(0,0)"/>
<path d="" fill="#4269A7" transform="translate(0,0)"/>
<path d="" fill="#4269A7" transform="translate(0,0)"/>
<path d="" fill="#4269A7" transform="translate(0,0)"/>
<path d="" fill="#4269A7" transform="translate(0,0)"/>
<path d="" fill="#4269A7" transform="translate(0,0)"/>
<path d="" fill="#4269A7" transform="translate(0,0)"/>
<path d="" fill="#4269A7" transform="translate(0,0)"/>
<path d="" fill="#4269A7" transform="translate(0,0)"/>
<path d="" fill="#4268A7" transform="translate(0,0)"/>
<path d="" fill="#4269A7" transform="translate(0,0)"/>
<path d="" fill="#4269A7" transform="translate(0,0)"/>
<path d="" fill="#426AA6" transform="translate(0,0)"/>
<path d="" fill="#3E69A9" transform="translate(0,0)"/>
<path d="" fill="#4269A7" transform="translate(0,0)"/>
<path d="" fill="#4269A7" transform="translate(0,0)"/>
<path d="" fill="#4269A7" transform="translate(0,0)"/>
<path d="" fill="#4269A7" transform="translate(0,0)"/>
<path d="" fill="#4269A7" transform="translate(0,0)"/>
<path d="" fill="#4269A7" transform="translate(0,0)"/>
<path d="" fill="#4269A7" transform="translate(0,0)"/>
<path d="" fill="#4269A7" transform="translate(0,0)"/>
<path d="" fill="#4269A7" transform="translate(0,0)"/>
<path d="" fill="#4269A7" transform="translate(0,0)"/>
<path d="" fill="#4269A7" transform="translate(0,0)"/>
<path d="" fill="#4269A7" transform="translate(0,0)"/>
<path d="" fill="#4269A7" transform="translate(0,0)"/>
<path d="" fill="#4269A7" transform="translate(0,0)"/>
<path d="" fill="#4269A7" transform="translate(0,0)"/>
<path d="" fill="#4269A7" transform="translate(0,0)"/>
<path d="" fill="#4269A7" transform="translate(0,0)"/>
<path d="" fill="#4269A7" transform="translate(0,0)"/>
<path d="" fill="#4269A7" transform="translate(0,0)"/>
<path d="" fill="#4269A7" transform="translate(0,0)"/>
<path d="" fill="#4269A7" transform="translate(0,0)"/>
</svg>
